<?xml version="1.0" standalone="no"?>
<!DOCTYPE svg PUBLIC "-//W3C//DTD SVG 20010904//EN"
 "http://www.w3.org/TR/2001/REC-SVG-20010904/DTD/svg10.dtd">
<svg version="1.0" xmlns="http://www.w3.org/2000/svg"
 width="142.000000pt" height="38.000000pt" viewBox="0 0 142.000000 38.000000"
 preserveAspectRatio="xMidYMid meet">

<g transform="translate(0.000000,38.000000) scale(0.100000,-0.100000)"
fill="#000000" stroke="none">
<path d="M45 343 c-24 -27 -25 -32 -25 -159 0 -180 -2 -178 166 -182 148 -4
174 5 174 63 0 33 -2 35 -33 35 -21 0 -36 -7 -45 -20 -10 -17 -23 -20 -90 -20
-47 0 -83 5 -90 12 -8 8 -12 49 -12 120 l0 108 100 0 c60 0 100 -4 100 -10 0
-5 16 -10 35 -10 33 0 35 2 35 33 0 53 -10 57 -157 57 -131 0 -132 0 -158 -27z"/>
<path d="M477 198 c-32 -95 -61 -179 -64 -185 -3 -9 8 -13 40 -13 44 0 45 1
54 38 l9 37 68 0 69 0 12 -35 c11 -32 15 -35 55 -38 32 -2 41 0 38 10 -3 7
-31 91 -63 186 l-59 172 -51 0 -50 0 -58 -172z m133 16 c11 -36 20 -68 20 -70
0 -6 -76 -5 -82 2 -5 5 32 134 39 134 1 0 11 -30 23 -66z"/>
<path d="M790 335 l0 -35 55 0 55 0 0 -150 0 -150 35 0 35 0 0 150 0 149 58 3
c56 3 57 3 60 36 l3 32 -150 0 -151 0 0 -35z"/>
<path d="M1150 185 l0 -185 130 0 130 0 0 30 0 29 -92 3 -93 3 -3 43 -3 42 95
0 96 0 0 35 0 35 -95 0 -95 0 0 40 0 40 95 0 95 0 0 35 0 35 -130 0 -130 0 0
-185z"/>
</g>
</svg>
