<svg width="31" height="10" viewBox="0 0 31 10" fill="none" xmlns="http://www.w3.org/2000/svg">
<path d="M24.1718 0.432129H30.5798V2.01613H26.0558V3.85213H30.2078V5.31613H26.0558V7.41613H30.6758V9.00013H24.1718V0.432129Z" fill="#313131"/>
<path d="M18.7318 2.01613H16.1638V0.432129H23.1838V2.01613H20.6158V9.00013H18.7318V2.01613Z" fill="#313131"/>
<path d="M11.8825 5.68813H14.1025L13.0225 2.54413H12.9985L11.8825 5.68813ZM12.0625 0.432129H13.9945L17.1985 9.00013H15.2425L14.5945 7.09213H11.3905L10.7185 9.00013H8.82251L12.0625 0.432129Z" fill="#313131"/>
<path d="M6.53999 3.31203C6.50799 3.09603 6.43599 2.90003 6.32399 2.72403C6.21199 2.54003 6.07199 2.38003 5.90399 2.24403C5.73599 2.10803 5.54399 2.00403 5.32799 1.93203C5.11999 1.85203 4.89999 1.81203 4.66799 1.81203C4.24399 1.81203 3.88399 1.89603 3.58799 2.06403C3.29199 2.22403 3.05199 2.44403 2.86799 2.72403C2.68399 2.99603 2.54799 3.30803 2.45999 3.66003C2.37999 4.01203 2.33999 4.37603 2.33999 4.75203C2.33999 5.11203 2.37999 5.46403 2.45999 5.80803C2.54799 6.14403 2.68399 6.44803 2.86799 6.72003C3.05199 6.99203 3.29199 7.21203 3.58799 7.38003C3.88399 7.54003 4.24399 7.62003 4.66799 7.62003C5.24399 7.62003 5.69199 7.44403 6.01199 7.09203C6.33999 6.74003 6.53999 6.27603 6.61199 5.70003H8.43599C8.38799 6.23603 8.26399 6.72003 8.06399 7.15203C7.86399 7.58403 7.59999 7.95203 7.27199 8.25603C6.94399 8.56003 6.55999 8.79203 6.11999 8.95203C5.67999 9.11203 5.19599 9.19203 4.66799 9.19203C4.01199 9.19203 3.41999 9.08003 2.89199 8.85603C2.37199 8.62403 1.93199 8.30803 1.57199 7.90803C1.21199 7.50803 0.935994 7.04003 0.743994 6.50403C0.551994 5.96003 0.455994 5.37603 0.455994 4.75203C0.455994 4.11203 0.551994 3.52003 0.743994 2.97603C0.935994 2.42403 1.21199 1.94403 1.57199 1.53603C1.93199 1.12803 2.37199 0.808027 2.89199 0.576027C3.41999 0.344027 4.01199 0.228027 4.66799 0.228027C5.13999 0.228027 5.58399 0.296027 5.99999 0.432027C6.42399 0.568027 6.79999 0.768027 7.12799 1.03203C7.46399 1.28803 7.73999 1.60803 7.95599 1.99203C8.17199 2.37603 8.30799 2.81603 8.36399 3.31203H6.53999Z" fill="#313131"/>
</svg>
