<svg width="34" height="9" viewBox="0 0 34 9" fill="none" xmlns="http://www.w3.org/2000/svg">
<path d="M0.758523 0.272727H3.03409L5.4375 6.13636H5.53977L7.94318 0.272727H10.2188V9H8.42898V3.3196H8.35653L6.09801 8.95739H4.87926L2.62074 3.2983H2.5483V9H0.758523V0.272727ZM13.2433 9H11.266L14.2788 0.272727H16.6566L19.6651 9H17.6879L15.5018 2.26705H15.4336L13.2433 9ZM13.1197 5.5696H17.7901V7.00994H13.1197V5.5696ZM19.3168 1.79403V0.272727H26.4844V1.79403H23.8125V9H21.9886V1.79403H19.3168ZM27.6648 9V0.272727H33.5455V1.79403H29.5099V3.87358H33.2429V5.39489H29.5099V7.47869H33.5625V9H27.6648Z" fill="#313131"/>
</svg>
